<svg width="25" height="25" viewBox="0 0 25 25" fill="none" xmlns="http://www.w3.org/2000/svg">
<g clip-path="url(#clip0_256_9)">
<path d="M19.9219 9.76562C22.5107 9.76562 24.6094 7.66696 24.6094 5.07812C24.6094 2.48929 22.5107 0.390625 19.9219 0.390625C17.333 0.390625 15.2344 2.48929 15.2344 5.07812C15.2344 7.66696 17.333 9.76562 19.9219 9.76562Z" stroke="white" stroke-width="2" stroke-miterlimit="10"/>
<path d="M4.29688 20.3125C6.45424 20.3125 8.20312 18.5636 8.20312 16.4062C8.20312 14.2489 6.45424 12.5 4.29688 12.5C2.13951 12.5 0.390625 14.2489 0.390625 16.4062C0.390625 18.5636 2.13951 20.3125 4.29688 20.3125Z" stroke="white" stroke-width="2" stroke-miterlimit="10"/>
<path d="M18.75 24.6094C20.4759 24.6094 21.875 23.2103 21.875 21.4844C21.875 19.7585 20.4759 18.3594 18.75 18.3594C17.0241 18.3594 15.625 19.7585 15.625 21.4844C15.625 23.2103 17.0241 24.6094 18.75 24.6094Z" stroke="white" stroke-width="2" stroke-miterlimit="10"/>
<path d="M15.625 21.0938L7.8125 17.9688" stroke="white" stroke-width="2" stroke-miterlimit="10"/>
<path d="M7.42188 13.6719L16.0156 8.20312" stroke="white" stroke-width="2" stroke-miterlimit="10"/>
</g>
<defs>
<clipPath id="clip0_256_9">
<rect width="25" height="25" fill="white"/>
</clipPath>
</defs>
</svg>
